PathFileType	4	(X/Y/Z)	52_1_51_p1_0-400.trc
DataRate	CameraRate	NumFrames	NumMarkers	Units	OrigDataRate	OrigDataStartFrame	OrigNumFrames
55.0	55.0	5	27	m	55.0	150	401
Frame#	Time	RHip			RKnee			RAnkle			RBigToe			RSmallToe			RHeel			LHip			LKnee			LAnkle			LBigToe			LSmallToe			LHeel			Neck			Head			Nose			RShoulder			RElbow			RWrist			RThumb			RIndex			RPinky			LShoulder			LElbow			LWrist			LThumb			LIndex			LPinky			
		X1	Y1	Z1	X2	Y2	Z2	X3	Y3	Z3	X4	Y4	Z4	X5	Y5	Z5	X6	Y6	Z6	X7	Y7	Z7	X8	Y8	Z8	X9	Y9	Z9	X10	Y10	Z10	X11	Y11	Z11	X12	Y12	Z12	X13	Y13	Z13	X14	Y14	Z14	X15	Y15	Z15	X16	Y16	Z16	X17	Y17	Z17	X18	Y18	Z18	X19	Y19	Z19	X20	Y20	Z20	X21	Y21	Z21	X22	Y22	Z22	X23	Y23	Z23	X24	Y24	Z24	X25	Y25	Z25	X26	Y26	Z26	X27	Y27	Z27	
150	2.727272727272727	0.2129521195665125	0.5109544825712486	0.4958118512113662	0.11645318629878364	0.6048391534794909	0.8897517590111903	0.041666210321433465	0.7438109566662113	1.2608264636866002	0.0017957201845330219	0.588442850579951	1.3042611383796123	0.06136270658145562	0.6199753117882371	1.3255431221014464	0.00011384505649830197	0.8584481635549206	1.31875804744114	0.018114773230849618	0.5408767029285796	0.46044239323382913	-0.07890358750273192	0.6855479583108884	0.8686728244737135	-0.14509381352521175	0.7681754105849465	1.22901773589679	-0.13732921405165216	0.628058867862312	1.2765490762472347	-0.19725180389076258	0.6558332223945778	1.2634003565955125	-0.14557194522370662	0.8263536978166999	1.2849357448549303	0.24674682200574993	0.41127210168116196	-0.0032087804581170387	0.29850125827755974	0.28747765721998625	-0.2327666681342968	0.2536240712173351	0.2679562092605491	-0.0835327122315437	0.35816609467431854	0.42260938804076936	0.10987462213772207	0.3369371544930024	0.5065677236844641	0.3874430131659273	0.28894312251038684	0.47594323386496756	0.6232226744988014	0.20995834558903337	0.4404646835178284	0.7094980237919115	0.21432503714233475	0.4816551039959138	0.7538758902418201	0.2467995217633829	0.5338343027312379	0.7632946835842993	0.07487475754430789	0.4301523852141415	0.02492252803866166	-0.013483344503862715	0.472664490272243	0.26765567630671433	-0.049171016397941594	0.46925347302033643	0.5082146259899089	-0.013527315114644571	0.42339665886406574	0.6138611673329712	-0.03127361027839462	0.4187155775349578	0.6611099177012376	-0.09562596934765312	0.47063034830938194	0.6229959546552901
151	2.7454545454545456	0.21304147243345792	0.5109691369320225	0.4957767012276611	0.11584890364074267	0.6069120346050213	0.8979218904678604	0.0393168421531812	0.7283300807685168	1.255120280421795	0.0019540018301395195	0.5889270142750338	1.304258528835135	0.06156926043207462	0.6205814627523196	1.3255008664273016	0.00011144592310631399	0.8582085574753128	1.3185820781566218	0.012692635649639735	0.5545517924934467	0.4609175942590862	-0.08301816931533254	0.6738020138255097	0.874303739194943	-0.14504282878638078	0.767949131159319	1.2290154654330483	-0.13724598572540145	0.6281656843197443	1.2766686263097382	-0.19716948914040597	0.6557576022233005	1.263425519163705	-0.14560021183389327	0.8266798607066075	1.2851547484603194	0.24677196015283848	0.4113239092997071	-0.0031978434436288486	0.29843647534326634	0.2874709174271496	-0.23280504391273144	0.2534944822579351	0.26805553013039685	-0.08357949925704092	0.35818781545573286	0.4226847077330517	0.10994024526721319	0.3367000563596406	0.5079233444907141	0.3910884450983901	0.2889475087310707	0.47647231290396036	0.6233557104705779	0.21144702644057606	0.44075244054001717	0.706318518901065	0.21740785342152216	0.4936372983283755	0.7564547247390531	0.2505865859862349	0.5461202949227614	0.7655492172277379	0.07487481017382479	0.43044897866987414	0.025022548107616244	-0.014068197266243906	0.47247281432103294	0.27123020464196423	-0.05313518200495665	0.4676519284441911	0.5073193971850368	-0.017908327665706558	0.423814441780349	0.6167858308006176	-0.03302743193074728	0.4063940981240478	0.6585033753294088	-0.09529024673844673	0.46813702707760085	0.6185831269023266
152	2.7636363636363637	0.2171355270407516	0.5122879010513938	0.49677391672790755	0.11592422950070935	0.6070585327979278	0.8979703383528084	0.03933767434356159	0.7282735527800901	1.255107950287319	0.0019093629253071932	0.5889127677823527	1.304334464694529	0.061495864130943906	0.6206188942742241	1.3256341694178582	0.00010379320659369643	0.8581658892549517	1.3186562619178401	0.01265475122378632	0.5542817805286363	0.4608561135348959	-0.08140625842721777	0.6734382804287771	0.8707331699521992	-0.14507709524551543	0.7682877374493876	1.2290853876537386	-0.13735471631091214	0.6281968559236814	1.2766068221510958	-0.19716648667090386	0.6559338997639972	1.263472785423037	-0.14561111412542055	0.8268323468420459	1.285116274090228	0.2507901739523666	0.4122170268661625	-0.0025256075577118797	0.3013626542452411	0.29913012921983717	-0.2338953314963507	0.25359060254389526	0.26804288836061074	-0.08358374301597249	0.3582161532213882	0.4227370313183278	0.10988916359215711	0.33730428416578206	0.506880387059173	0.38741482781223363	0.29178829928040817	0.48915375739031214	0.6255623877227453	0.21164526816118193	0.4440688069553987	0.7104180793581504	0.2204278756428164	0.5066583928895733	0.7597185373382238	0.25110233860943487	0.5478583954324565	0.7626213247731652	0.07488298041279742	0.43039942634939043	0.025044711326894988	-0.014069693348741459	0.4724725375878358	0.27122760418687836	-0.05443230507643212	0.4676150135381306	0.5106395220806295	-0.01914221501624802	0.4093783014766779	0.6104377895143408	-0.03689804177143405	0.4053215863792647	0.6577730689613096	-0.09479102555295701	0.4675953960659482	0.615041980742196
153	2.7818181818181817	0.2166549328860076	0.5123964410607204	0.5006064839994288	0.11898967026222132	0.6211280652681008	0.9016254485446873	0.04175493242963331	0.7439599530120917	1.2608794133201975	0.0016945565194290224	0.5915694065919873	1.309542680685643	0.06723590382712626	0.6045925068057864	1.320601495243304	0.0027625911104771144	0.8748171344205972	1.3245028204976008	0.01759603701038019	0.5404569122675921	0.4642695593072329	-0.08190698796253194	0.6762355294161873	0.8766403624505686	-0.14543999303864935	0.7712607198610346	1.235005850442942	-0.13732253249910198	0.6283642196412699	1.2767668912391439	-0.19713094829742667	0.655781752031608	1.263505788537461	-0.1385632452739521	0.8081369448216633	1.2794103715758733	0.25078899593058673	0.4122637130262299	-0.0025602494792092024	0.29843515166384493	0.28749109679482626	-0.23277080662756136	0.2534947014440073	0.26825438074197944	-0.08364172636017271	0.35825428367296974	0.42272527544272415	0.10985171561186748	0.34103845001816024	0.5207845029778708	0.38886730527323404	0.2931789818794394	0.48936785342042827	0.6224557334872974	0.2143043372714467	0.4565384032650937	0.7129589902249661	0.22331487903287542	0.5195297890963682	0.7627697400562655	0.2530226508369053	0.5457150528546325	0.7538808934241524	0.07493272796737296	0.4303693766889564	0.02493445915319046	-0.014228364751650823	0.47255970013071896	0.27129198436228796	-0.054472733251761926	0.46734924275035067	0.510650043222105	-0.018567373565448034	0.4093172179036993	0.606224766177824	-0.036346189944150536	0.40547406567143296	0.6543569954125793	-0.09524078339251596	0.4693979219711128	0.61889015105726
154	2.8	0.21663898695653186	0.5125243986415222	0.5006379360286461	0.1207382662068598	0.6209746315671042	0.8974183362162587	0.04170144631514758	0.7438564108734188	1.2608662932627122	0.0016078061407155024	0.5910527054122303	1.3095987839372498	0.06145416029735641	0.6208055937326005	1.3259556847931278	0.00015203593923379126	0.8583363271176844	1.3185963594891517	0.018224275656925283	0.5402613394623994	0.46045913917212794	-0.07990567737785795	0.6913942580551417	0.8804315496258107	-0.14550962886064137	0.7715152083089097	1.2349788032387268	-0.1329328953085187	0.6307480706595596	1.2783873942159143	-0.1971752911367521	0.6557636432651806	1.263505549416496	-0.14562698011712655	0.8263715200115087	1.2849872204707802	0.25077126343410955	0.4122709710844103	-0.00255399754109982	0.2950222495081256	0.2990193238022363	-0.23515055524447903	0.2534411853228174	0.2682665195860667	-0.08366523836049986	0.35828891516287886	0.42284448612860154	0.10983705855530869	0.3444347132779243	0.5336247344497044	0.3902199172680371	0.2931902555836751	0.4895790503729772	0.6225369975984532	0.21563456277484733	0.4559926478917559	0.7095364062755072	0.22336656067717067	0.5192888946083807	0.7623797296945327	0.25229461977537176	0.5456671843565822	0.7572707351031094	0.07490438398318659	0.4302354348145696	0.024921931613032886	-0.015322552229057516	0.4726953297948086	0.2743118967828865	-0.054442811398274324	0.46725225497451106	0.5106044446653104	-0.018587167937693976	0.40927030242520646	0.6062976055432396	-0.036365205916462244	0.4053865020137217	0.6543469197742446	-0.09527790869655772	0.4691086965479693	0.6187221168931533
